# xmcd
#
# Track frame offsets:
#	150
#	16530
#	29852
#	40328
#	53962
#	69211
#	82045
#	96171
#	113658
#	124976
#	137869
#	152874
#	163269
#	172840
#	186856
#
# Disc length: 2637 seconds
#
# Revision: 1
# Processed by: cddbd v1.5.1PL0 Copyright (c) Steve Scherf et al.
# Submitted via: audiograbber 1.83.01
#
DISCID=ca0a4b0f
DTITLE=Various Artist - Rounder Sampler
DYEAR=2005
DGENRE=Bluegrass
TTITLE0=Rhonda Vincent and the Rage - Missouri Moon
TTITLE1=Doyle Lawson and Quicksilver - Heartbreak Number Nine
TTITLE2=Alicia Nugent - Think of What You've Done
TTITLE3=The Grascals - Teardrops in My Eyes
TTITLE4=Donna Hughes - Scattered to the Wind
TTITLE5=Blue Highway - Nothing but a Whippoorwill
TTITLE6=Malibu Storm - Clover
TTITLE7=James king - Echo Mountain
TTITLE8=Alison Krous and Union Station - Rain please Go Away
TTITLE9=Ginny Hawker and Tracy Schwartz - Those Brown Eyes
TTITLE10=Open Road - Wanderin' Blues
TTITLE11=Rob Ickes - Fiddler's Dream
TTITLE12=Dry Branch Fire Squad - Jesus on the Mainline
TTITLE13=Peter Rowan and Tony Rice - You Were THere for Me
TTITLE14=April Verch - Dixie Hoedown
EXTD=
EXTT0=
EXTT1=
EXTT2=
EXTT3=
EXTT4=
EXTT5=
EXTT6=
EXTT7=
EXTT8=
EXTT9=
EXTT10=
EXTT11=
EXTT12=
EXTT13=
EXTT14=
PLAYORDER=
